<svg xmlns="http://www.w3.org/2000/svg" xmlns:xlink="http://www.w3.org/1999/xlink" width="500" zoomAndPan="magnify" viewBox="0 0 375 74.999997" height="100" preserveAspectRatio="xMidYMid meet" version="1.0"><defs><g/><clipPath id="5aff91bf17"><path d="M 233.890625 44.730469 L 237.8125 44.730469 L 237.8125 48.652344 L 233.890625 48.652344 Z M 233.890625 44.730469 " clip-rule="nonzero"/></clipPath><clipPath id="69d9c820af"><path d="M 235.851562 44.730469 C 234.769531 44.730469 233.890625 45.609375 233.890625 46.691406 C 233.890625 47.773438 234.769531 48.652344 235.851562 48.652344 C 236.933594 48.652344 237.8125 47.773438 237.8125 46.691406 C 237.8125 45.609375 236.933594 44.730469 235.851562 44.730469 Z M 235.851562 44.730469 " clip-rule="nonzero"/></clipPath></defs><rect x="-37.5" width="450" fill="#ffffff" y="-7.5" height="89.999996" fill-opacity="1"/><rect x="-37.5" width="450" fill="#e6e6dd" y="-7.5" height="89.999996" fill-opacity="1"/><g fill="#000000" fill-opacity="1"><g transform="translate(144.609898, 49.377943)"><g><path d="M 6.890625 0.234375 C 5.710938 0.234375 4.640625 0.00390625 3.671875 -0.453125 C 2.710938 -0.910156 1.957031 -1.585938 1.40625 -2.484375 C 0.851562 -3.378906 0.578125 -4.457031 0.578125 -5.71875 L 0.578125 -12.1875 L 5.65625 -12.1875 L 5.65625 -6.015625 C 5.65625 -5.554688 5.75 -5.191406 5.9375 -4.921875 C 6.132812 -4.648438 6.429688 -4.515625 6.828125 -4.515625 C 7.210938 -4.515625 7.5 -4.640625 7.6875 -4.890625 C 7.882812 -5.140625 7.984375 -5.5 7.984375 -5.96875 L 7.984375 -25.859375 L 13.1875 -25.859375 L 13.1875 -6.46875 C 13.1875 -5.125 12.921875 -3.945312 12.390625 -2.9375 C 11.859375 -1.925781 11.113281 -1.144531 10.15625 -0.59375 C 9.207031 -0.0390625 8.117188 0.234375 6.890625 0.234375 Z M 6.890625 0.234375 "/></g></g></g><g fill="#000000" fill-opacity="1"><g transform="translate(156.983873, 49.377943)"><g><path d="M 1.140625 0 L 1.140625 -25.859375 L 6.328125 -25.859375 L 6.328125 -4.390625 L 11.65625 -4.390625 L 11.65625 0 Z M 1.140625 0 "/></g></g></g><g fill="#000000" fill-opacity="1"><g transform="translate(167.280444, 49.377943)"><g><path d="M 5.0625 0.234375 C 3.351562 0.234375 2.179688 -0.328125 1.546875 -1.453125 C 0.921875 -2.585938 0.609375 -4.210938 0.609375 -6.328125 C 0.609375 -8.046875 0.832031 -9.367188 1.28125 -10.296875 C 1.726562 -11.222656 2.351562 -11.898438 3.15625 -12.328125 C 3.957031 -12.765625 5.179688 -13.242188 6.828125 -13.765625 L 8.28125 -14.234375 L 8.28125 -16.5 C 8.28125 -17.082031 8.164062 -17.53125 7.9375 -17.84375 C 7.707031 -18.15625 7.429688 -18.3125 7.109375 -18.3125 C 6.828125 -18.3125 6.578125 -18.179688 6.359375 -17.921875 C 6.148438 -17.660156 6.046875 -17.304688 6.046875 -16.859375 L 6.046875 -15.53125 L 0.9375 -15.53125 L 0.9375 -16.265625 C 0.9375 -18.429688 1.441406 -19.972656 2.453125 -20.890625 C 3.460938 -21.816406 5.113281 -22.28125 7.40625 -22.28125 C 9.226562 -22.28125 10.710938 -21.800781 11.859375 -20.84375 C 13.003906 -19.894531 13.578125 -18.546875 13.578125 -16.796875 L 13.578125 0 L 8.34375 0 L 8.34375 -2.625 C 8.082031 -1.71875 7.664062 -1.015625 7.09375 -0.515625 C 6.519531 -0.015625 5.84375 0.234375 5.0625 0.234375 Z M 7.140625 -3.859375 C 7.535156 -3.859375 7.816406 -4.019531 7.984375 -4.34375 C 8.160156 -4.675781 8.25 -5.082031 8.25 -5.5625 L 8.25 -11.71875 C 7.46875 -11.414062 6.890625 -11.03125 6.515625 -10.5625 C 6.148438 -10.101562 5.96875 -9.460938 5.96875 -8.640625 L 5.96875 -5.8125 C 5.96875 -4.507812 6.359375 -3.859375 7.140625 -3.859375 Z M 7.140625 -3.859375 "/></g></g></g><g fill="#000000" fill-opacity="1"><g transform="translate(180.166242, 49.377943)"><g><path d="M 5.296875 0.234375 C 3.648438 0.234375 2.519531 -0.253906 1.90625 -1.234375 C 1.300781 -2.210938 1 -3.675781 1 -5.625 L 1 -22.046875 L 6.296875 -22.046875 L 6.296875 -6.6875 C 6.296875 -6.539062 6.296875 -6.160156 6.296875 -5.546875 C 6.296875 -4.941406 6.390625 -4.515625 6.578125 -4.265625 C 6.765625 -4.015625 7.0625 -3.890625 7.46875 -3.890625 C 8.007812 -3.890625 8.347656 -4.113281 8.484375 -4.5625 C 8.628906 -5.007812 8.703125 -5.65625 8.703125 -6.5 L 8.703125 -6.6875 L 8.734375 -22.046875 L 13.96875 -22.046875 L 13.96875 0 L 8.703125 0 L 8.703125 -2.34375 C 8.335938 -1.425781 7.914062 -0.765625 7.4375 -0.359375 C 6.957031 0.0351562 6.242188 0.234375 5.296875 0.234375 Z M 5.296875 0.234375 "/></g></g></g><g fill="#000000" fill-opacity="1"><g transform="translate(193.533759, 49.377943)"><g><path d="M 1.046875 -22.046875 L 6.328125 -22.046875 L 6.328125 -19.59375 C 6.585938 -20.457031 7.039062 -21.125 7.6875 -21.59375 C 8.34375 -22.070312 9.148438 -22.3125 10.109375 -22.3125 L 10.109375 -17.921875 C 9.367188 -17.921875 8.550781 -17.8125 7.65625 -17.59375 C 6.769531 -17.382812 6.328125 -17.140625 6.328125 -16.859375 L 6.328125 0 L 1.046875 0 Z M 1.046875 -22.046875 "/></g></g></g><g fill="#000000" fill-opacity="1"><g transform="translate(202.234644, 49.377943)"><g><path d="M 1.03125 -23.515625 L 1.03125 -27.1875 L 6.296875 -27.1875 L 6.296875 -23.515625 Z M 1.03125 0 L 1.03125 -22.046875 L 6.296875 -22.046875 L 6.296875 0 Z M 1.03125 0 "/></g></g></g><g fill="#000000" fill-opacity="1"><g transform="translate(207.894694, 49.377943)"><g><path d="M 5.59375 0.234375 C 4.207031 0.234375 3.253906 -0.0507812 2.734375 -0.625 C 2.210938 -1.207031 1.953125 -2.144531 1.953125 -3.4375 L 1.953125 -17.1875 L 0.484375 -17.1875 L 0.484375 -21.203125 L 1.953125 -21.203125 L 1.953125 -25.859375 L 7.078125 -25.859375 L 7.078125 -21.203125 L 8.578125 -21.203125 L 8.578125 -17.1875 L 7.078125 -17.1875 L 7.078125 -4.8125 C 7.078125 -4.4375 7.101562 -4.15625 7.15625 -3.96875 C 7.21875 -3.789062 7.378906 -3.703125 7.640625 -3.703125 C 7.847656 -3.703125 8.039062 -3.710938 8.21875 -3.734375 C 8.394531 -3.753906 8.515625 -3.765625 8.578125 -3.765625 L 8.578125 -0.15625 C 8.273438 -0.0703125 7.835938 0.0078125 7.265625 0.09375 C 6.691406 0.1875 6.132812 0.234375 5.59375 0.234375 Z M 5.59375 0.234375 "/></g></g></g><g fill="#000000" fill-opacity="1"><g transform="translate(215.421394, 49.377943)"><g><path d="M 7.46875 0.234375 C 3.070312 0.234375 0.875 -2.039062 0.875 -6.59375 L 0.875 -15.453125 C 0.875 -17.535156 1.457031 -19.191406 2.625 -20.421875 C 3.800781 -21.660156 5.414062 -22.28125 7.46875 -22.28125 C 9.507812 -22.28125 11.117188 -21.660156 12.296875 -20.421875 C 13.472656 -19.191406 14.0625 -17.535156 14.0625 -15.453125 L 14.0625 -6.59375 C 14.0625 -2.039062 11.863281 0.234375 7.46875 0.234375 Z M 7.46875 -3.828125 C 7.882812 -3.828125 8.191406 -3.976562 8.390625 -4.28125 C 8.597656 -4.582031 8.703125 -4.992188 8.703125 -5.515625 L 8.703125 -16.296875 C 8.703125 -17.578125 8.289062 -18.21875 7.46875 -18.21875 C 6.644531 -18.21875 6.234375 -17.578125 6.234375 -16.296875 L 6.234375 -5.515625 C 6.234375 -4.992188 6.332031 -4.582031 6.53125 -4.28125 C 6.726562 -3.976562 7.039062 -3.828125 7.46875 -3.828125 Z M 7.46875 -3.828125 "/></g></g></g><g clip-path="url(#5aff91bf17)"><g clip-path="url(#69d9c820af)"><path fill="#000000" d="M 233.890625 44.730469 L 237.8125 44.730469 L 237.8125 48.652344 L 233.890625 48.652344 Z M 233.890625 44.730469 " fill-opacity="1" fill-rule="nonzero"/></g></g></svg>